<svg xmlns="http://www.w3.org/2000/svg" xmlns:xlink="http://www.w3.org/1999/xlink" width="2000" zoomAndPan="magnify" viewBox="0 0 1500 1499.999933" height="2000" preserveAspectRatio="xMidYMid meet" version="1.0"><defs><g/><clipPath id="53aa825863"><path d="M 622.769531 434.390625 L 877.019531 434.390625 L 877.019531 750.140625 L 622.769531 750.140625 Z M 622.769531 434.390625 " clip-rule="nonzero"/></clipPath><clipPath id="f0fb93dc0f"><rect x="0" width="1129" y="0" height="148"/></clipPath></defs><rect x="-150" width="1800" fill="#ffffff" y="-149.999993" height="1799.99992" fill-opacity="1"/><rect x="-150" width="1800" fill="#3b82f6" y="-149.999993" height="1799.99992" fill-opacity="1"/><path fill="#fef9fd" d="M 806.96875 687.507812 C 798.699219 687.507812 798.699219 700.027344 806.96875 700.027344 C 815.25 700.027344 815.238281 687.507812 806.96875 687.507812 " fill-opacity="1" fill-rule="nonzero"/><path fill="#fef9fd" d="M 686.757812 584.371094 C 686.757812 592.640625 699.285156 592.640625 699.285156 584.371094 C 699.285156 576.089844 686.757812 576.089844 686.757812 584.371094 " fill-opacity="1" fill-rule="nonzero"/><path fill="#fef9fd" d="M 743.742188 693.761719 C 743.742188 702.042969 756.261719 702.03125 756.261719 693.761719 C 756.261719 685.492188 743.742188 685.492188 743.742188 693.761719 " fill-opacity="1" fill-rule="nonzero"/><path fill="#fef9fd" d="M 743.742188 639.066406 C 743.742188 647.335938 756.261719 647.335938 756.261719 639.066406 C 756.261719 630.796875 743.742188 630.796875 743.742188 639.066406 " fill-opacity="1" fill-rule="nonzero"/><path fill="#fef9fd" d="M 800.714844 639.066406 C 800.714844 647.335938 813.234375 647.335938 813.234375 639.066406 C 813.234375 630.796875 800.714844 630.796875 800.714844 639.066406 " fill-opacity="1" fill-rule="nonzero"/><path fill="#fef9fd" d="M 800.714844 584.371094 C 800.714844 592.640625 813.234375 592.640625 813.234375 584.371094 C 813.234375 576.089844 800.714844 576.089844 800.714844 584.371094 " fill-opacity="1" fill-rule="nonzero"/><path fill="#fef9fd" d="M 667.375 500.332031 C 667.375 486.023438 679.011719 474.398438 693.308594 474.398438 L 806.695312 474.398438 C 820.980469 474.398438 832.628906 486.023438 832.628906 500.332031 L 832.628906 505.449219 C 832.628906 519.75 820.980469 531.382812 806.695312 531.382812 L 693.308594 531.382812 C 679.011719 531.382812 667.375 519.75 667.375 505.449219 Z M 806.96875 607.738281 C 794.09375 607.738281 783.601562 597.25 783.601562 584.371094 C 783.601562 571.484375 794.09375 560.992188 806.96875 560.992188 C 819.859375 560.992188 830.347656 571.484375 830.347656 584.371094 C 830.347656 597.25 819.859375 607.738281 806.96875 607.738281 Z M 806.96875 662.433594 C 794.09375 662.433594 783.601562 651.957031 783.601562 639.066406 C 783.601562 626.175781 794.09375 615.699219 806.96875 615.699219 C 819.859375 615.699219 830.347656 626.175781 830.347656 639.066406 C 830.347656 651.957031 819.859375 662.433594 806.96875 662.433594 Z M 806.96875 717.128906 C 794.09375 717.128906 783.601562 706.648438 783.601562 693.761719 C 783.601562 680.882812 794.09375 670.394531 806.96875 670.394531 C 819.859375 670.394531 830.347656 680.882812 830.347656 693.761719 C 830.347656 706.648438 819.859375 717.128906 806.96875 717.128906 Z M 749.996094 607.738281 C 737.105469 607.738281 726.628906 597.25 726.628906 584.371094 C 726.628906 571.484375 737.105469 560.992188 749.996094 560.992188 C 762.882812 560.992188 773.363281 571.484375 773.363281 584.371094 C 773.363281 597.25 762.882812 607.738281 749.996094 607.738281 Z M 749.996094 662.433594 C 737.105469 662.433594 726.628906 651.957031 726.628906 639.066406 C 726.628906 626.175781 737.105469 615.699219 749.996094 615.699219 C 762.882812 615.699219 773.363281 626.175781 773.363281 639.066406 C 773.363281 651.957031 762.882812 662.433594 749.996094 662.433594 Z M 749.996094 717.128906 C 737.105469 717.128906 726.628906 706.648438 726.628906 693.761719 C 726.628906 680.882812 737.105469 670.394531 749.996094 670.394531 C 762.882812 670.394531 773.363281 680.882812 773.363281 693.761719 C 773.363281 706.648438 762.882812 717.128906 749.996094 717.128906 Z M 693.019531 607.738281 C 680.132812 607.738281 669.652344 597.25 669.652344 584.371094 C 669.652344 571.484375 680.132812 560.992188 693.019531 560.992188 C 705.910156 560.992188 716.386719 571.484375 716.386719 584.371094 C 716.386719 597.25 705.910156 607.738281 693.019531 607.738281 Z M 693.019531 662.433594 C 680.132812 662.433594 669.652344 651.957031 669.652344 639.066406 C 669.652344 626.175781 680.132812 615.699219 693.019531 615.699219 C 705.910156 615.699219 716.386719 626.175781 716.386719 639.066406 C 716.386719 651.957031 705.910156 662.433594 693.019531 662.433594 Z M 693.019531 717.128906 C 680.132812 717.128906 669.652344 706.648438 669.652344 693.761719 C 669.652344 680.882812 680.132812 670.394531 693.019531 670.394531 C 705.910156 670.394531 716.386719 680.882812 716.386719 693.761719 C 716.386719 706.648438 705.910156 717.128906 693.019531 717.128906 Z M 659.402344 733.070312 L 840.585938 733.070312 C 851.269531 733.070312 859.945312 724.382812 859.945312 713.703125 L 859.945312 470.984375 C 859.945312 460.304688 851.269531 451.617188 840.585938 451.617188 L 659.402344 451.617188 C 648.722656 451.617188 640.046875 460.304688 640.046875 470.984375 L 640.046875 713.703125 C 640.046875 724.382812 648.722656 733.070312 659.402344 733.070312 " fill-opacity="1" fill-rule="nonzero"/><path fill="#fef9fd" d="M 693.308594 514.28125 L 806.695312 514.28125 C 811.550781 514.28125 815.515625 510.320312 815.515625 505.449219 L 815.515625 500.332031 C 815.515625 495.460938 811.550781 491.5 806.695312 491.5 L 693.308594 491.5 C 688.4375 491.5 684.476562 495.460938 684.476562 500.332031 L 684.476562 505.449219 C 684.476562 510.320312 688.4375 514.28125 693.308594 514.28125 " fill-opacity="1" fill-rule="nonzero"/><path fill="#fef9fd" d="M 743.742188 584.371094 C 743.742188 592.640625 756.261719 592.640625 756.261719 584.371094 C 756.261719 576.089844 743.742188 576.089844 743.742188 584.371094 " fill-opacity="1" fill-rule="nonzero"/><path fill="#fef9fd" d="M 686.757812 693.761719 C 686.757812 702.042969 699.285156 702.03125 699.285156 693.761719 C 699.285156 685.492188 686.757812 685.492188 686.757812 693.761719 " fill-opacity="1" fill-rule="nonzero"/><path fill="#fef9fd" d="M 686.757812 639.066406 C 686.757812 647.335938 699.285156 647.335938 699.285156 639.066406 C 699.285156 630.796875 686.757812 630.796875 686.757812 639.066406 " fill-opacity="1" fill-rule="nonzero"/><g clip-path="url(#53aa825863)"><path fill="#2c8ffa" d="M 640.046875 470.984375 C 640.046875 460.304688 648.722656 451.617188 659.402344 451.617188 L 840.585938 451.617188 C 851.269531 451.617188 859.945312 460.304688 859.945312 470.984375 L 859.945312 713.703125 C 859.945312 724.382812 851.269531 733.070312 840.585938 733.070312 L 659.402344 733.070312 C 648.722656 733.070312 640.046875 724.382812 640.046875 713.703125 Z M 659.402344 750.171875 L 840.585938 750.171875 C 860.695312 750.171875 877.058594 733.8125 877.058594 713.703125 L 877.058594 470.984375 C 877.058594 450.875 860.695312 434.515625 840.585938 434.515625 L 659.402344 434.515625 C 639.292969 434.515625 622.933594 450.875 622.933594 470.984375 L 622.933594 713.703125 C 622.933594 733.8125 639.292969 750.171875 659.402344 750.171875 " fill-opacity="1" fill-rule="nonzero"/></g><path fill="#2c8ffa" d="M 684.476562 500.332031 C 684.476562 495.460938 688.4375 491.5 693.308594 491.5 L 806.695312 491.5 C 811.550781 491.5 815.515625 495.460938 815.515625 500.332031 L 815.515625 505.449219 C 815.515625 510.320312 811.550781 514.28125 806.695312 514.28125 L 693.308594 514.28125 C 688.4375 514.28125 684.476562 510.320312 684.476562 505.449219 Z M 693.308594 531.382812 L 806.695312 531.382812 C 820.980469 531.382812 832.628906 519.75 832.628906 505.449219 L 832.628906 500.332031 C 832.628906 486.023438 820.980469 474.398438 806.695312 474.398438 L 693.308594 474.398438 C 679.011719 474.398438 667.375 486.023438 667.375 500.332031 L 667.375 505.449219 C 667.375 519.75 679.011719 531.382812 693.308594 531.382812 " fill-opacity="1" fill-rule="nonzero"/><path fill="#2c8ffa" d="M 800.714844 584.371094 C 800.714844 576.089844 813.234375 576.089844 813.234375 584.371094 C 813.234375 592.640625 800.714844 592.640625 800.714844 584.371094 Z M 806.96875 560.992188 C 794.09375 560.992188 783.601562 571.484375 783.601562 584.371094 C 783.601562 597.25 794.09375 607.738281 806.96875 607.738281 C 819.859375 607.738281 830.347656 597.25 830.347656 584.371094 C 830.347656 571.484375 819.859375 560.992188 806.96875 560.992188 " fill-opacity="1" fill-rule="nonzero"/><path fill="#2c8ffa" d="M 743.742188 584.371094 C 743.742188 576.089844 756.261719 576.089844 756.261719 584.371094 C 756.261719 592.640625 743.742188 592.640625 743.742188 584.371094 Z M 749.996094 560.992188 C 737.105469 560.992188 726.628906 571.484375 726.628906 584.371094 C 726.628906 597.25 737.105469 607.738281 749.996094 607.738281 C 762.882812 607.738281 773.363281 597.25 773.363281 584.371094 C 773.363281 571.484375 762.882812 560.992188 749.996094 560.992188 " fill-opacity="1" fill-rule="nonzero"/><path fill="#2c8ffa" d="M 686.757812 584.371094 C 686.757812 576.089844 699.285156 576.089844 699.285156 584.371094 C 699.285156 592.640625 686.757812 592.640625 686.757812 584.371094 Z M 693.019531 560.992188 C 680.132812 560.992188 669.652344 571.484375 669.652344 584.371094 C 669.652344 597.25 680.132812 607.738281 693.019531 607.738281 C 705.910156 607.738281 716.386719 597.25 716.386719 584.371094 C 716.386719 571.484375 705.910156 560.992188 693.019531 560.992188 " fill-opacity="1" fill-rule="nonzero"/><path fill="#2c8ffa" d="M 800.714844 639.066406 C 800.714844 630.796875 813.234375 630.796875 813.234375 639.066406 C 813.234375 647.335938 800.714844 647.335938 800.714844 639.066406 Z M 806.96875 615.699219 C 794.09375 615.699219 783.601562 626.175781 783.601562 639.066406 C 783.601562 651.957031 794.09375 662.433594 806.96875 662.433594 C 819.859375 662.433594 830.347656 651.957031 830.347656 639.066406 C 830.347656 626.175781 819.859375 615.699219 806.96875 615.699219 " fill-opacity="1" fill-rule="nonzero"/><path fill="#2c8ffa" d="M 743.742188 639.066406 C 743.742188 630.796875 756.261719 630.796875 756.261719 639.066406 C 756.261719 647.335938 743.742188 647.335938 743.742188 639.066406 Z M 749.996094 615.699219 C 737.105469 615.699219 726.628906 626.175781 726.628906 639.066406 C 726.628906 651.957031 737.105469 662.433594 749.996094 662.433594 C 762.882812 662.433594 773.363281 651.957031 773.363281 639.066406 C 773.363281 626.175781 762.882812 615.699219 749.996094 615.699219 " fill-opacity="1" fill-rule="nonzero"/><path fill="#2c8ffa" d="M 686.757812 639.066406 C 686.757812 630.796875 699.285156 630.796875 699.285156 639.066406 C 699.285156 647.335938 686.757812 647.335938 686.757812 639.066406 Z M 693.019531 615.699219 C 680.132812 615.699219 669.652344 626.175781 669.652344 639.066406 C 669.652344 651.957031 680.132812 662.433594 693.019531 662.433594 C 705.910156 662.433594 716.386719 651.957031 716.386719 639.066406 C 716.386719 626.175781 705.910156 615.699219 693.019531 615.699219 " fill-opacity="1" fill-rule="nonzero"/><path fill="#2c8ffa" d="M 806.96875 700.027344 C 798.699219 700.027344 798.699219 687.507812 806.96875 687.507812 C 815.238281 687.507812 815.25 700.027344 806.96875 700.027344 Z M 806.96875 670.394531 C 794.09375 670.394531 783.601562 680.882812 783.601562 693.761719 C 783.601562 706.648438 794.09375 717.128906 806.96875 717.128906 C 819.859375 717.128906 830.347656 706.648438 830.347656 693.761719 C 830.347656 680.882812 819.859375 670.394531 806.96875 670.394531 " fill-opacity="1" fill-rule="nonzero"/><path fill="#2c8ffa" d="M 743.742188 693.761719 C 743.742188 685.492188 756.261719 685.492188 756.261719 693.761719 C 756.261719 702.03125 743.742188 702.042969 743.742188 693.761719 Z M 749.996094 670.394531 C 737.105469 670.394531 726.628906 680.882812 726.628906 693.761719 C 726.628906 706.648438 737.105469 717.128906 749.996094 717.128906 C 762.882812 717.128906 773.363281 706.648438 773.363281 693.761719 C 773.363281 680.882812 762.882812 670.394531 749.996094 670.394531 " fill-opacity="1" fill-rule="nonzero"/><path fill="#2c8ffa" d="M 686.757812 693.761719 C 686.757812 685.492188 699.285156 685.492188 699.285156 693.761719 C 699.285156 702.03125 686.757812 702.042969 686.757812 693.761719 Z M 693.019531 670.394531 C 680.132812 670.394531 669.652344 680.882812 669.652344 693.761719 C 669.652344 706.648438 680.132812 717.128906 693.019531 717.128906 C 705.910156 717.128906 716.386719 706.648438 716.386719 693.761719 C 716.386719 680.882812 705.910156 670.394531 693.019531 670.394531 " fill-opacity="1" fill-rule="nonzero"/><g transform="matrix(1, 0, 0, 1, 198, 821)"><g clip-path="url(#f0fb93dc0f)"><g fill="#fef9fd" fill-opacity="1"><g transform="translate(2.332985, 117.211813)"><g><path d="M 11.421875 0 L 11.421875 -83.203125 L 76.59375 -83.203125 C 86.519531 -83.203125 94.207031 -81.613281 99.65625 -78.4375 C 105.113281 -75.269531 107.84375 -70.253906 107.84375 -63.390625 C 107.84375 -58.378906 106.160156 -54.0625 102.796875 -50.4375 C 99.441406 -46.820312 94.179688 -44.601562 87.015625 -43.78125 L 87.015625 -43.671875 C 95.003906 -42.921875 101.160156 -40.625 105.484375 -36.78125 C 109.816406 -32.9375 111.984375 -28.140625 111.984375 -22.390625 C 111.984375 -14.484375 108.8125 -8.773438 102.46875 -5.265625 C 96.125 -1.753906 87.460938 0 76.484375 0 Z M 32.8125 -15.671875 L 73.34375 -15.671875 C 78.5 -15.671875 82.53125 -16.363281 85.4375 -17.75 C 88.351562 -19.132812 89.8125 -21.726562 89.8125 -25.53125 C 89.8125 -29.113281 88.207031 -31.722656 85 -33.359375 C 81.789062 -35.003906 77.050781 -35.828125 70.78125 -35.828125 L 32.8125 -35.828125 Z M 32.8125 -49.265625 L 71.453125 -49.265625 C 77.117188 -49.265625 81.222656 -50.066406 83.765625 -51.671875 C 86.304688 -53.285156 87.578125 -55.582031 87.578125 -58.5625 C 87.578125 -60.207031 87.21875 -61.703125 86.5 -63.046875 C 85.789062 -64.390625 84.46875 -65.488281 82.53125 -66.34375 C 80.59375 -67.207031 77.796875 -67.640625 74.140625 -67.640625 L 32.8125 -67.640625 Z M 32.8125 -49.265625 "/></g></g></g><g fill="#fef9fd" fill-opacity="1"><g transform="translate(144.556805, 117.211813)"><g><path d="M 59.234375 2.015625 C 47.066406 2.015625 37.234375 0.484375 29.734375 -2.578125 C 22.234375 -5.640625 16.765625 -10.191406 13.328125 -16.234375 C 9.890625 -22.285156 8.171875 -29.789062 8.171875 -38.75 L 8.171875 -83.203125 L 29.671875 -83.203125 L 29.671875 -38.96875 C 29.671875 -21.800781 39.566406 -13.21875 59.359375 -13.21875 C 79.066406 -13.21875 88.921875 -21.765625 88.921875 -38.859375 L 88.921875 -83.203125 L 110.421875 -83.203125 L 110.421875 -38.640625 C 110.421875 -29.828125 108.71875 -22.394531 105.3125 -16.34375 C 101.914062 -10.300781 96.484375 -5.726562 89.015625 -2.625 C 81.554688 0.46875 71.628906 2.015625 59.234375 2.015625 Z M 59.234375 2.015625 "/></g></g></g><g fill="#fef9fd" fill-opacity="1"><g transform="translate(288.908308, 117.211813)"><g><path d="M 11.421875 0 L 11.421875 -83.203125 L 66.859375 -83.203125 C 75.890625 -83.203125 83.726562 -82.117188 90.375 -79.953125 C 97.019531 -77.785156 102.523438 -74.78125 106.890625 -70.9375 C 111.253906 -67.09375 114.519531 -62.671875 116.6875 -57.671875 C 118.851562 -52.671875 119.9375 -47.296875 119.9375 -41.546875 C 119.9375 -36.097656 118.925781 -30.867188 116.90625 -25.859375 C 114.894531 -20.859375 111.742188 -16.414062 107.453125 -12.53125 C 103.160156 -8.65625 97.671875 -5.597656 90.984375 -3.359375 C 84.304688 -1.117188 76.265625 0 66.859375 0 Z M 32.8125 -15.5625 L 62.9375 -15.5625 C 70.101562 -15.5625 76.335938 -16.472656 81.640625 -18.296875 C 86.941406 -20.128906 91.046875 -22.945312 93.953125 -26.75 C 96.867188 -30.5625 98.328125 -35.492188 98.328125 -41.546875 C 98.328125 -50.359375 95.207031 -56.910156 88.96875 -61.203125 C 82.738281 -65.492188 74.0625 -67.640625 62.9375 -67.640625 L 32.8125 -67.640625 Z M 32.8125 -15.5625 "/></g></g></g><g fill="#fef9fd" fill-opacity="1"><g transform="translate(438.971055, 117.211813)"><g><path d="M 62.59375 2.015625 C 50.945312 2.015625 40.753906 0.351562 32.015625 -2.96875 C 23.285156 -6.289062 16.492188 -11.160156 11.640625 -17.578125 C 6.796875 -24.003906 4.375 -31.804688 4.375 -40.984375 L 4.375 -41.546875 C 4.375 -50.878906 6.78125 -58.773438 11.59375 -65.234375 C 16.40625 -71.691406 23.175781 -76.597656 31.90625 -79.953125 C 40.644531 -83.316406 50.875 -85 62.59375 -85 C 69.988281 -85 76.929688 -84.175781 83.421875 -82.53125 C 89.921875 -80.882812 95.707031 -78.585938 100.78125 -75.640625 C 105.863281 -72.691406 109.914062 -69.203125 112.9375 -65.171875 C 115.957031 -61.140625 117.617188 -56.773438 117.921875 -52.078125 L 117.921875 -51.734375 L 96.859375 -51.734375 L 96.859375 -52.078125 C 96.191406 -55.429688 94.195312 -58.46875 90.875 -61.1875 C 87.550781 -63.914062 83.40625 -66.0625 78.4375 -67.625 C 73.476562 -69.195312 68.160156 -69.984375 62.484375 -69.984375 C 55.316406 -69.984375 48.988281 -68.898438 43.5 -66.734375 C 38.019531 -64.578125 33.726562 -61.40625 30.625 -57.21875 C 27.53125 -53.039062 25.984375 -47.851562 25.984375 -41.65625 L 25.984375 -41.09375 C 25.984375 -35.195312 27.53125 -30.175781 30.625 -26.03125 C 33.726562 -21.894531 38.039062 -18.742188 43.5625 -16.578125 C 49.082031 -14.410156 55.425781 -13.328125 62.59375 -13.328125 C 67.75 -13.328125 72.789062 -13.976562 77.71875 -15.28125 C 82.644531 -16.59375 86.9375 -18.59375 90.59375 -21.28125 C 94.25 -23.96875 96.675781 -27.289062 97.875 -31.25 L 97.984375 -31.46875 L 57.109375 -31.46875 L 57.109375 -44.125 L 117.921875 -44.125 L 117.921875 -41.875 C 117.921875 -34.5625 116.519531 -28.160156 113.71875 -22.671875 C 110.914062 -17.191406 107.015625 -12.617188 102.015625 -8.953125 C 97.015625 -5.296875 91.15625 -2.550781 84.4375 -0.71875 C 77.71875 1.101562 70.4375 2.015625 62.59375 2.015625 Z M 62.59375 2.015625 "/></g></g></g><g fill="#fef9fd" fill-opacity="1"><g transform="translate(587.466009, 117.211813)"><g><path d="M 11.421875 0 L 11.421875 -83.203125 L 98.765625 -83.203125 L 98.765625 -67.640625 L 32.8125 -67.640625 L 32.8125 -49.9375 L 94.0625 -49.9375 L 94.0625 -35.609375 L 32.8125 -35.609375 L 32.8125 -15.5625 L 99.671875 -15.5625 L 99.671875 0 Z M 11.421875 0 "/></g></g></g><g fill="#fef9fd" fill-opacity="1"><g transform="translate(717.147516, 117.211813)"><g><path d="M 39.859375 0 L 39.859375 -67.640625 L 0.78125 -67.640625 L 0.78125 -83.203125 L 100.34375 -83.203125 L 100.34375 -67.640625 L 61.25 -67.640625 L 61.25 0 Z M 39.859375 0 "/></g></g></g><g fill="#fef9fd" fill-opacity="1"><g transform="translate(844.029388, 117.211813)"><g><path d="M 11.421875 0 L 11.421875 -83.203125 L 68.875 -83.203125 C 78.425781 -83.203125 86.09375 -82.140625 91.875 -80.015625 C 97.664062 -77.890625 101.867188 -74.992188 104.484375 -71.328125 C 107.097656 -67.671875 108.40625 -63.457031 108.40625 -58.6875 C 108.40625 -52.632812 106.460938 -47.722656 102.578125 -43.953125 C 98.691406 -40.179688 93.425781 -37.660156 86.78125 -36.390625 L 86.78125 -36.28125 C 89.914062 -35.613281 92.53125 -34.695312 94.625 -33.53125 C 96.71875 -32.375 98.453125 -30.675781 99.828125 -28.4375 C 101.210938 -26.195312 102.351562 -23.023438 103.25 -18.921875 L 104.59375 -13.328125 C 105.414062 -9.960938 106.144531 -7.347656 106.78125 -5.484375 C 107.414062 -3.617188 108.179688 -1.789062 109.078125 0 L 86.90625 0 C 86.375 -1.039062 85.828125 -2.382812 85.265625 -4.03125 C 84.710938 -5.675781 84.023438 -8.328125 83.203125 -11.984375 L 81.75 -18.140625 C 81.300781 -20.304688 80.367188 -22.078125 78.953125 -23.453125 C 77.535156 -24.835938 75.390625 -25.847656 72.515625 -26.484375 C 69.640625 -27.117188 65.703125 -27.4375 60.703125 -27.4375 L 32.8125 -27.4375 L 32.8125 0 Z M 32.8125 -42.328125 L 67.1875 -42.328125 C 73.382812 -42.328125 78.21875 -43.425781 81.6875 -45.625 C 85.164062 -47.832031 86.90625 -51.210938 86.90625 -55.765625 C 86.90625 -59.421875 85.46875 -62.3125 82.59375 -64.4375 C 79.71875 -66.570312 74.992188 -67.640625 68.421875 -67.640625 L 32.8125 -67.640625 Z M 32.8125 -42.328125 "/></g></g></g><g fill="#fef9fd" fill-opacity="1"><g transform="translate(984.237445, 117.211813)"><g><path d="M 0.890625 0 L 44.34375 -83.203125 L 72.796875 -83.203125 L 116.578125 0 L 92.71875 0 L 83.875 -18.359375 L 33.484375 -18.359375 L 24.53125 0 Z M 40.3125 -32.59375 L 77.046875 -32.59375 L 59.6875 -68.421875 L 58.796875 -70.328125 L 58.5625 -70.328125 L 57.78125 -68.421875 Z M 40.3125 -32.59375 "/></g></g></g></g></g></svg>